<svg width="310" height="310" viewBox="0 0 310 310" fill="none" xmlns="http://www.w3.org/2000/svg">
<mask id="path-1-inside-1" fill="white">
<rect width="310" height="310" rx="4"/>
</mask>
<rect width="310" height="310" rx="4" stroke="#00A3FF" stroke-width="10" mask="url(#path-1-inside-1)"/>
<path d="M256.326 32.0464L251.291 27H283.965V59.7466L278.929 54.7002V32.0464H256.326ZM278.948 278.954V256.281L283.983 251.235V283.982H251.309L256.344 278.935H278.948V278.954ZM278.948 256.281L283.983 251.235V283.982H251.309L256.344 278.935H278.966V256.281H278.948ZM32.5698 278.954H55.1916L60.2269 284H27.5345V251.253L32.5698 256.3V278.954ZM32.5698 32.0464H55.1916L60.2269 27H27.5345V59.7466L32.5698 54.7002V32.0464Z" fill="#00A3FF"/>
<path d="M20 206.517V204.012H289V206.517H20Z" fill="#00A3FF"/>
<path d="M164.727 236.472L160.375 241.26C160.419 241.413 160.442 241.572 160.444 241.731V247.183C160.444 247.665 160.253 248.127 159.912 248.468C159.571 248.809 159.109 249 158.627 249H151.358C151.119 249 150.883 248.953 150.662 248.862C150.442 248.771 150.242 248.637 150.073 248.468C149.904 248.299 149.77 248.099 149.679 247.878C149.587 247.658 149.54 247.422 149.54 247.183V241.731C149.542 241.457 149.606 241.187 149.728 240.942L145.258 236.472C145.165 236.378 145.095 236.264 145.051 236.14C145.007 236.015 144.991 235.883 145.004 235.751C145.023 235.283 145.221 234.84 145.558 234.515C145.896 234.19 146.346 234.008 146.815 234.007H163.17C163.639 234.008 164.089 234.19 164.426 234.515C164.764 234.84 164.962 235.283 164.98 235.751C164.993 235.883 164.978 236.015 164.934 236.14C164.89 236.264 164.819 236.378 164.727 236.472ZM151.358 246.274C151.358 246.515 151.454 246.746 151.624 246.917C151.794 247.087 152.025 247.183 152.266 247.183H157.718C157.959 247.183 158.19 247.087 158.361 246.917C158.531 246.746 158.627 246.515 158.627 246.274V242.64C158.627 242.399 158.531 242.168 158.361 241.997C158.19 241.827 157.959 241.731 157.718 241.731H152.266C152.025 241.731 151.794 241.827 151.624 241.997C151.454 242.168 151.358 242.399 151.358 242.64V246.274ZM147.723 235.825H147.139L150.91 239.975C151.056 239.936 151.207 239.915 151.358 239.914H158.627C158.778 239.916 158.928 239.936 159.073 239.975L162.844 235.825H147.723ZM154.992 242.64C155.113 242.64 155.228 242.688 155.314 242.773C155.399 242.858 155.447 242.973 155.447 243.094V245.82C155.447 245.88 155.435 245.939 155.412 245.994C155.389 246.049 155.356 246.099 155.314 246.141C155.271 246.183 155.221 246.217 155.166 246.24C155.111 246.262 155.052 246.274 154.992 246.274C154.933 246.274 154.874 246.262 154.819 246.24C154.763 246.217 154.713 246.183 154.671 246.141C154.629 246.099 154.595 246.049 154.573 245.994C154.55 245.939 154.538 245.88 154.538 245.82V243.094C154.538 242.973 154.586 242.858 154.671 242.773C154.756 242.688 154.872 242.64 154.992 242.64ZM161.489 232.384C161.323 232.549 161.099 232.642 160.865 232.641C160.63 232.641 160.406 232.547 160.241 232.381C160.076 232.216 159.983 231.991 159.983 231.757C159.984 231.523 160.077 231.298 160.243 231.133L162.112 229.257C162.278 229.092 162.503 228.999 162.737 229C162.971 229.001 163.196 229.095 163.361 229.261C163.526 229.427 163.618 229.652 163.617 229.886C163.616 230.12 163.523 230.344 163.357 230.509L161.489 232.384ZM154.992 232.644C154.751 232.644 154.52 232.549 154.35 232.378C154.179 232.208 154.084 231.977 154.084 231.736V229.918C154.084 229.677 154.179 229.446 154.35 229.276C154.52 229.106 154.751 229.01 154.992 229.01C155.233 229.01 155.465 229.106 155.635 229.276C155.805 229.446 155.901 229.677 155.901 229.918V231.736C155.901 231.977 155.805 232.208 155.635 232.378C155.465 232.549 155.233 232.644 154.992 232.644ZM148.489 232.385L146.612 230.515C146.447 230.35 146.355 230.125 146.355 229.891C146.356 229.657 146.449 229.432 146.615 229.267C146.781 229.102 147.006 229.009 147.24 229.01C147.474 229.01 147.698 229.104 147.864 229.27L149.74 231.139C149.901 231.306 149.99 231.529 149.988 231.761C149.986 231.992 149.892 232.214 149.728 232.378C149.564 232.541 149.342 232.634 149.11 232.635C148.878 232.636 148.655 232.546 148.489 232.385Z" fill="white"/>
<path d="M128.518 266.278C128.947 266.25 129.409 266.208 129.904 266.152C130.408 266.096 130.912 266.031 131.416 265.956V263.464H129.022V262.526C129.237 261.994 129.437 261.457 129.624 260.916C129.811 260.365 129.993 259.801 130.17 259.222H128.686V258.326H130.422C130.515 257.999 130.604 257.677 130.688 257.36C130.772 257.033 130.851 256.702 130.926 256.366L131.794 256.478C131.719 256.786 131.64 257.099 131.556 257.416C131.481 257.724 131.407 258.027 131.332 258.326H134.062V259.222H131.08C130.903 259.829 130.721 260.407 130.534 260.958C130.347 261.509 130.161 262.031 129.974 262.526H131.416V259.936L132.298 259.95V262.526H133.796V263.464H132.298V265.816C132.625 265.769 132.942 265.718 133.25 265.662C133.558 265.597 133.847 265.531 134.118 265.466L134.216 266.404C133.927 266.46 133.619 266.521 133.292 266.586C132.975 266.642 132.643 266.698 132.298 266.754V269.568H131.416V266.88C130.912 266.955 130.422 267.02 129.946 267.076C129.479 267.132 129.05 267.174 128.658 267.202L128.518 266.278ZM140.558 263.87V264.822H137.954V267.86H141.328V268.77H133.544V267.86H137.058V264.822H134.426V263.87H140.558ZM133.936 262.274C135.009 261.742 135.952 261.149 136.764 260.496C137.585 259.843 138.281 259.105 138.85 258.284H134.454V257.374H140.068V258.228C139.807 258.611 139.531 258.975 139.242 259.32C138.962 259.656 138.659 259.987 138.332 260.314C138.519 260.417 138.724 260.533 138.948 260.664C139.172 260.795 139.41 260.939 139.662 261.098C140.054 261.341 140.409 261.569 140.726 261.784C141.043 261.989 141.309 262.176 141.524 262.344L140.992 263.128C140.777 262.951 140.521 262.759 140.222 262.554C139.933 262.349 139.592 262.125 139.2 261.882C138.565 261.481 138.043 261.173 137.632 260.958C136.727 261.751 135.663 262.475 134.44 263.128L133.936 262.274ZM148.132 260.594V256.436H149.084V257.934H154.768V258.858H149.084V260.594H153.69V265.172H144.296V260.594H148.132ZM145.22 264.234H152.78V261.504H145.22V264.234ZM142.742 269.092C142.901 268.868 143.059 268.611 143.218 268.322C143.386 268.042 143.545 267.753 143.694 267.454C143.853 267.155 143.993 266.861 144.114 266.572C144.245 266.273 144.352 265.993 144.436 265.732L145.318 266.026C145.215 266.306 145.094 266.605 144.954 266.922C144.823 267.23 144.683 267.538 144.534 267.846C144.385 268.154 144.231 268.453 144.072 268.742C143.913 269.041 143.759 269.311 143.61 269.554L142.742 269.092ZM153.354 265.69C153.69 266.213 154.021 266.768 154.348 267.356C154.684 267.935 154.969 268.481 155.202 268.994L154.362 269.414C154.129 268.882 153.853 268.327 153.536 267.748C153.219 267.16 152.892 266.609 152.556 266.096L153.354 265.69ZM147.39 266.04C147.455 266.264 147.521 266.516 147.586 266.796C147.661 267.067 147.726 267.342 147.782 267.622C147.847 267.902 147.903 268.173 147.95 268.434C148.006 268.705 148.048 268.943 148.076 269.148L147.166 269.33C147.138 269.115 147.101 268.877 147.054 268.616C147.017 268.355 146.97 268.089 146.914 267.818C146.858 267.538 146.793 267.263 146.718 266.992C146.653 266.712 146.587 266.451 146.522 266.208L147.39 266.04ZM150.428 265.886C150.521 266.101 150.619 266.334 150.722 266.586C150.825 266.829 150.923 267.081 151.016 267.342C151.119 267.603 151.212 267.86 151.296 268.112C151.389 268.373 151.473 268.621 151.548 268.854L150.68 269.19C150.615 268.947 150.54 268.691 150.456 268.42C150.372 268.159 150.283 267.897 150.19 267.636C150.097 267.365 149.999 267.104 149.896 266.852C149.793 266.6 149.695 266.376 149.602 266.18L150.428 265.886ZM161.32 257.248V265.34H157.554V257.248H161.32ZM168.334 261.84V265.62H162.678V261.84H168.334ZM161.698 260.972C162.099 260.767 162.431 260.561 162.692 260.356C162.963 260.151 163.182 259.931 163.35 259.698C163.527 259.455 163.658 259.189 163.742 258.9C163.835 258.611 163.905 258.279 163.952 257.906H162.216V257.136H168.544C168.516 257.724 168.483 258.242 168.446 258.69C168.418 259.138 168.385 259.502 168.348 259.782C168.32 259.987 168.283 260.155 168.236 260.286C168.189 260.417 168.119 260.524 168.026 260.608C167.942 260.683 167.825 260.743 167.676 260.79C167.536 260.827 167.354 260.86 167.13 260.888C167.046 260.897 166.929 260.907 166.78 260.916C166.64 260.925 166.486 260.935 166.318 260.944C166.159 260.944 166.001 260.949 165.842 260.958C165.683 260.958 165.543 260.958 165.422 260.958L165.296 260.076C165.539 260.095 165.8 260.109 166.08 260.118C166.36 260.127 166.612 260.127 166.836 260.118C166.995 260.109 167.116 260.095 167.2 260.076C167.293 260.057 167.363 260.029 167.41 259.992C167.466 259.945 167.503 259.885 167.522 259.81C167.541 259.735 167.555 259.642 167.564 259.53C167.583 259.306 167.601 259.063 167.62 258.802C167.639 258.541 167.657 258.242 167.676 257.906H164.806C164.731 258.438 164.633 258.886 164.512 259.25C164.391 259.605 164.227 259.917 164.022 260.188C163.826 260.449 163.579 260.692 163.28 260.916C162.981 261.14 162.617 261.383 162.188 261.644L161.698 260.972ZM163.49 264.85H167.522V262.61H163.49V264.85ZM160.494 264.528V261.644H158.394V264.528H160.494ZM158.394 260.832H160.494V258.06H158.394V260.832ZM156.742 269.288C156.891 269.036 157.045 268.77 157.204 268.49C157.363 268.219 157.517 267.944 157.666 267.664C157.815 267.375 157.951 267.09 158.072 266.81C158.203 266.53 158.31 266.264 158.394 266.012L159.234 266.334C159.122 266.642 158.991 266.959 158.842 267.286C158.702 267.613 158.557 267.925 158.408 268.224C158.259 268.532 158.109 268.812 157.96 269.064C157.82 269.325 157.694 269.54 157.582 269.708L156.742 269.288ZM167.298 265.928C167.419 266.087 167.564 266.297 167.732 266.558C167.909 266.819 168.087 267.099 168.264 267.398C168.451 267.687 168.628 267.977 168.796 268.266C168.964 268.565 169.099 268.831 169.202 269.064L168.39 269.512C168.306 269.307 168.185 269.059 168.026 268.77C167.867 268.481 167.699 268.187 167.522 267.888C167.354 267.589 167.181 267.305 167.004 267.034C166.827 266.763 166.677 266.539 166.556 266.362L167.298 265.928ZM164.344 266.152C164.456 266.348 164.568 266.577 164.68 266.838C164.792 267.099 164.899 267.365 165.002 267.636C165.114 267.897 165.212 268.154 165.296 268.406C165.38 268.658 165.45 268.873 165.506 269.05L164.694 269.358C164.629 269.181 164.545 268.952 164.442 268.672C164.339 268.392 164.232 268.107 164.12 267.818C164.017 267.519 163.915 267.244 163.812 266.992C163.709 266.74 163.63 266.549 163.574 266.418L164.344 266.152ZM161.306 266.264C161.343 266.395 161.395 266.586 161.46 266.838C161.535 267.081 161.609 267.351 161.684 267.65C161.759 267.939 161.824 268.229 161.88 268.518C161.945 268.817 161.992 269.073 162.02 269.288L161.124 269.456C161.105 269.288 161.073 269.078 161.026 268.826C160.989 268.574 160.937 268.308 160.872 268.028C160.816 267.757 160.751 267.487 160.676 267.216C160.611 266.936 160.545 266.684 160.48 266.46L161.306 266.264ZM181.2 259.572V262.134H172.828V259.572H181.2ZM170.742 268.7C172.189 268.336 173.108 267.972 173.5 267.608C173.892 267.235 174.088 266.679 174.088 265.942V265.06H179.548V267.566C179.548 267.865 179.604 268.056 179.716 268.14C179.828 268.224 180.033 268.271 180.332 268.28C180.435 268.289 180.551 268.294 180.682 268.294C180.813 268.294 180.934 268.289 181.046 268.28C181.242 268.271 181.396 268.257 181.508 268.238C181.62 268.229 181.709 268.201 181.774 268.154C181.849 268.107 181.9 268.037 181.928 267.944C181.956 267.851 181.984 267.725 182.012 267.566C182.031 267.473 182.045 267.333 182.054 267.146C182.073 266.95 182.091 266.731 182.11 266.488L182.964 266.754C182.945 267.015 182.922 267.244 182.894 267.44C182.875 267.636 182.857 267.813 182.838 267.972C182.801 268.243 182.749 268.443 182.684 268.574C182.628 268.705 182.539 268.817 182.418 268.91C182.306 269.003 182.175 269.073 182.026 269.12C181.877 269.167 181.653 269.195 181.354 269.204C181.279 269.204 181.2 269.204 181.116 269.204C181.041 269.204 180.953 269.204 180.85 269.204C180.757 269.204 180.645 269.204 180.514 269.204C180.383 269.204 180.229 269.204 180.052 269.204C179.772 269.204 179.539 269.181 179.352 269.134C179.175 269.087 179.03 269.008 178.918 268.896C178.815 268.793 178.741 268.658 178.694 268.49C178.657 268.322 178.638 268.112 178.638 267.86V265.914H174.998V266.474C174.998 267.183 174.737 267.776 174.214 268.252C173.953 268.495 173.584 268.714 173.108 268.91C172.641 269.115 172.025 269.321 171.26 269.526L170.742 268.7ZM182.656 263.156V265.536H181.746V263.968H172.282V265.522H171.386V263.156H182.656ZM177.126 256.226C177.21 256.375 177.327 256.618 177.476 256.954C177.551 257.113 177.611 257.262 177.658 257.402C177.705 257.533 177.742 257.649 177.77 257.752H183.062V258.55H170.938V257.752H176.748C176.729 257.677 176.701 257.598 176.664 257.514C176.636 257.43 176.599 257.337 176.552 257.234C176.487 257.075 176.426 256.935 176.37 256.814C176.314 256.693 176.258 256.59 176.202 256.506L177.126 256.226ZM173.738 261.434H180.304V260.272H173.738V261.434Z" fill="white"/>
</svg>
