<svg width="20" height="20" viewBox="0 0 20 20" fill="none" xmlns="http://www.w3.org/2000/svg">
<path d="M19.7268 7.47215L15.3748 12.2603C15.4188 12.4134 15.4422 12.5717 15.4443 12.731V18.1829C15.4443 18.6649 15.2529 19.1271 14.912 19.4679C14.5712 19.8087 14.109 20.0002 13.627 20.0002H6.35778C6.11913 20.0002 5.88281 19.9532 5.66233 19.8619C5.44184 19.7705 5.2415 19.6367 5.07275 19.4679C4.904 19.2992 4.77014 19.0988 4.67881 18.8784C4.58748 18.6579 4.54047 18.4216 4.54047 18.1829V12.731C4.54199 12.4571 4.60601 12.1872 4.72766 11.9418L0.257991 7.47215C0.165492 7.37788 0.0948403 7.26443 0.0510322 7.13984C0.00722418 7.01525 -0.0086693 6.88255 0.0044762 6.75113C0.0225495 6.28297 0.221086 5.83997 0.558495 5.51493C0.895905 5.18988 1.34601 5.00802 1.81451 5.00743H18.1703C18.6388 5.00802 19.0889 5.18988 19.4263 5.51493C19.7637 5.83997 19.9622 6.28297 19.9803 6.75113C19.9935 6.88255 19.9776 7.01525 19.9338 7.13984C19.89 7.26443 19.8193 7.37788 19.7268 7.47215ZM6.35778 17.2742C6.35778 17.5152 6.45351 17.7464 6.62392 17.9168C6.79433 18.0872 7.02545 18.1829 7.26644 18.1829H12.7184C12.9593 18.1829 13.1905 18.0872 13.3609 17.9168C13.5313 17.7464 13.627 17.5152 13.627 17.2742V13.6396C13.627 13.3986 13.5313 13.1675 13.3609 12.9971C13.1905 12.8267 12.9593 12.731 12.7184 12.731H7.26644C7.02545 12.731 6.79433 12.8267 6.62392 12.9971C6.45351 13.1675 6.35778 13.3986 6.35778 13.6396V17.2742ZM2.72317 6.82473H2.13936L5.91027 10.9755C6.05626 10.9362 6.20661 10.9154 6.35778 10.9137H13.627C13.7777 10.9155 13.9276 10.9363 14.0732 10.9755L17.8441 6.82473H2.72317ZM9.9924 13.6396C10.1129 13.6396 10.2284 13.6875 10.3137 13.7727C10.3989 13.8579 10.4467 13.9735 10.4467 14.094V16.8199C10.4467 16.8796 10.435 16.9387 10.4121 16.9938C10.3893 17.0489 10.3558 17.099 10.3137 17.1412C10.2715 17.1834 10.2214 17.2168 10.1663 17.2397C10.1111 17.2625 10.0521 17.2742 9.9924 17.2742C9.93273 17.2742 9.87365 17.2625 9.81853 17.2397C9.76341 17.2168 9.71333 17.1834 9.67114 17.1412C9.62895 17.099 9.59548 17.0489 9.57265 16.9938C9.54982 16.9387 9.53807 16.8796 9.53807 16.8199V14.094C9.53807 13.9735 9.58594 13.8579 9.67114 13.7727C9.75634 13.6875 9.8719 13.6396 9.9924 13.6396ZM16.4893 3.38366C16.3234 3.54892 16.0987 3.64152 15.8646 3.6411C15.6304 3.64067 15.406 3.54725 15.2408 3.38139C15.0755 3.21553 14.9829 2.99081 14.9833 2.75667C14.9838 2.52254 15.0772 2.29816 15.243 2.1329L17.1122 0.256531C17.2783 0.0915132 17.5031 -0.000762085 17.7372 4.74139e-06C17.9714 0.000771567 18.1956 0.0945177 18.3606 0.26062C18.5257 0.426722 18.6179 0.651574 18.6172 0.885712C18.6164 1.11985 18.5227 1.34409 18.3566 1.50911L16.4893 3.38366ZM9.9924 3.64445C9.75141 3.64445 9.52029 3.54871 9.34988 3.37831C9.17948 3.2079 9.08374 2.97678 9.08374 2.73579V0.918485C9.08374 0.677495 9.17948 0.446376 9.34988 0.27597C9.52029 0.105564 9.75141 0.0098316 9.9924 0.0098316C10.2334 0.0098316 10.4645 0.105564 10.6349 0.27597C10.8053 0.446376 10.901 0.677495 10.901 0.918485V2.73579C10.901 2.97678 10.8053 3.2079 10.6349 3.37831C10.4645 3.54871 10.2334 3.64445 9.9924 3.64445ZM3.48916 3.38457L1.61234 1.51547C1.44714 1.34955 1.35462 1.1248 1.35513 0.890661C1.35564 0.656524 1.44914 0.432179 1.61506 0.266981C1.78099 0.101782 2.00574 0.00926156 2.23987 0.00977277C2.47401 0.010284 2.69836 0.103785 2.86355 0.269706L4.73992 2.13881C4.90103 2.3055 4.99009 2.52888 4.98788 2.76068C4.98567 2.99249 4.89237 3.21413 4.72812 3.37772C4.56387 3.54132 4.34186 3.63373 4.11004 3.63502C3.87823 3.6363 3.65521 3.54634 3.48916 3.38457Z" fill="white"/>
</svg>
