<svg width="200" height="200" viewBox="0 0 200 200" fill="none" xmlns="http://www.w3.org/2000/svg">
<path d="M135.84 23.3789H64.9414C57.8516 23.3789 52.0508 29.1797 52.0508 36.2695V52.9297H148.75V36.2695C148.73 29.1797 142.93 23.3789 135.84 23.3789V23.3789Z" fill="#BDD2EF"/>
<path d="M156.582 48.1445H44.1992C36.1914 48.1445 29.707 54.6289 29.707 62.6367V124.277C29.707 132.285 36.1914 138.77 44.1992 138.77H156.602C164.609 138.77 171.094 132.285 171.094 124.277V62.6172C171.074 54.6289 164.59 48.1445 156.582 48.1445V48.1445ZM93.6328 73.3594H42.7734C40.2344 73.3594 38.1641 71.2891 38.1641 68.75C38.1641 66.2109 40.2344 64.1406 42.7734 64.1406H93.6328C96.1719 64.1406 98.2422 66.2109 98.2422 68.75C98.2422 71.2695 96.1523 73.3594 93.6328 73.3594Z" fill="#2867CE"/>
<path d="M52.0508 161.426C52.0508 170.039 59.1016 177.09 67.7148 177.09H133.066C141.68 177.09 148.73 170.039 148.73 161.426V133.105H52.0508V161.426Z" fill="#BDD2EF"/>
<path d="M133.34 152.051H67.4414C64.7656 152.051 62.5781 149.863 62.5781 147.187C62.5781 144.512 64.7656 142.324 67.4414 142.324H133.34C136.016 142.324 138.203 144.512 138.203 147.187C138.203 149.863 136.016 152.051 133.34 152.051ZM133.34 166.66H67.4414C64.7656 166.66 62.5781 164.473 62.5781 161.797C62.5781 159.121 64.7656 156.934 67.4414 156.934H133.34C136.016 156.934 138.203 159.121 138.203 161.797C138.203 164.473 136.016 166.66 133.34 166.66Z" fill="#2867CE"/>
</svg>
