<svg width="170" height="170" viewBox="0 0 170 170" fill="none" xmlns="http://www.w3.org/2000/svg">
<path d="M85 85L148.75 21.25" stroke="white" stroke-opacity="0.8" stroke-width="10.625" stroke-linecap="round" stroke-linejoin="round"/>
<path d="M130.078 39.9219C118.785 28.6516 103.674 22.0302 87.7332 21.3677C71.7925 20.7053 56.1838 26.0501 43.995 36.3446C31.8062 46.6392 23.9252 61.1337 21.9112 76.9605C19.8972 92.7873 23.8969 108.794 33.119 121.813C42.3411 134.832 56.1138 143.916 71.7124 147.267C87.3109 150.618 103.599 147.992 117.355 139.909C131.11 131.826 141.331 118.875 145.994 103.617C150.658 88.3593 149.425 71.907 142.54 57.5148" stroke="white" stroke-opacity="0.8" stroke-width="10.625" stroke-linecap="round" stroke-linejoin="round"/>
<path d="M107.539 62.461C102.269 57.1914 95.3196 53.935 87.8981 53.2577C80.4765 52.5803 73.0522 54.5249 66.9156 58.7534C60.779 62.9819 56.318 69.227 54.308 76.4033C52.2981 83.5795 52.8662 91.2332 55.9136 98.034C58.9611 104.835 64.2952 110.353 70.9888 113.629C77.6825 116.905 85.3125 117.732 92.5528 115.967C99.793 114.201 106.186 109.954 110.62 103.965C115.054 97.9747 117.249 90.6206 116.823 83.1803" stroke="white" stroke-opacity="0.8" stroke-width="10.625" stroke-linecap="round" stroke-linejoin="round"/>
</svg>
