<svg width="188" height="224" viewBox="0 0 188 224" fill="none" xmlns="http://www.w3.org/2000/svg">
<circle cx="164" cy="200" r="23.5" fill="black" fill-opacity="0.8"/>
<circle cx="164" cy="112" r="23.5" fill="black" fill-opacity="0.8"/>
<circle cx="164" cy="24" r="24" fill="black" fill-opacity="0.8"/>
<path d="M7.756 17.408V20.278H12.726V21.188H7.756V24.226H12.25V25.178H7.756V28.818H13.272V29.742H1.022V28.818H6.804V25.178H2.296V24.226H6.804V21.188H3.276C2.83733 22.14 2.30533 23.0687 1.68 23.974L0.84 23.498C1.44667 22.658 1.96467 21.7853 2.394 20.88C2.83267 19.9653 3.18733 18.9853 3.458 17.94L4.41 18.108C4.30733 18.4813 4.19067 18.85 4.06 19.214C3.93867 19.5687 3.808 19.9233 3.668 20.278H6.804V17.408H7.756ZM14.476 30.204C14.8027 29.784 15.078 29.3827 15.302 29C15.5353 28.6173 15.7033 28.2487 15.806 27.894C16.0207 27.1473 16.128 26.1673 16.128 24.954V22.98H22.176C22.5027 22.532 22.8107 22.0607 23.1 21.566C23.3987 21.062 23.6553 20.5673 23.87 20.082L24.738 20.474C24.5513 20.866 24.3227 21.286 24.052 21.734C23.7907 22.1727 23.534 22.588 23.282 22.98H26.992V23.89H17.024V25.136C17.024 26.3773 16.9027 27.4133 16.66 28.244C16.4267 29.028 15.974 29.8633 15.302 30.75L14.476 30.204ZM21.112 17.324C21.2333 17.5947 21.35 17.8887 21.462 18.206C21.574 18.5233 21.6767 18.8267 21.77 19.116H27.314V20.026H14.98V19.116H20.804C20.72 18.8547 20.6267 18.5887 20.524 18.318C20.4213 18.0473 20.3187 17.8093 20.216 17.604L21.112 17.324ZM18.452 20.082C18.676 20.4087 18.914 20.7773 19.166 21.188C19.418 21.5987 19.6607 22.014 19.894 22.434L19.04 22.896C18.8533 22.504 18.634 22.1027 18.382 21.692C18.1393 21.272 17.8967 20.894 17.654 20.558L18.452 20.082Z" fill="black" fill-opacity="0.8"/>
<path d="M10.43 110.322L10.346 113.556C10.3367 113.789 10.3087 113.985 10.262 114.144C10.2153 114.303 10.136 114.433 10.024 114.536C9.92133 114.629 9.77667 114.704 9.59 114.76C9.40333 114.807 9.16067 114.839 8.862 114.858C8.46067 114.886 8.078 114.905 7.714 114.914C7.35933 114.923 6.98133 114.928 6.58 114.928L6.44 113.92C6.804 113.939 7.17267 113.957 7.546 113.976C7.92867 113.985 8.302 113.981 8.666 113.962C8.82467 113.953 8.95067 113.943 9.044 113.934C9.14667 113.915 9.226 113.883 9.282 113.836C9.338 113.789 9.37533 113.724 9.394 113.64C9.41267 113.556 9.42667 113.444 9.436 113.304C9.45467 113.033 9.46867 112.721 9.478 112.366C9.48733 112.011 9.492 111.624 9.492 111.204H4.004V116.006C4.004 116.267 4.00867 116.473 4.018 116.622C4.02733 116.771 4.06467 116.888 4.13 116.972C4.20467 117.047 4.31667 117.098 4.466 117.126C4.62467 117.163 4.844 117.196 5.124 117.224C5.28267 117.243 5.57667 117.252 6.006 117.252C6.44467 117.261 6.95333 117.266 7.532 117.266C8.12 117.266 8.62867 117.261 9.058 117.252C9.49667 117.252 9.79533 117.243 9.954 117.224C10.2433 117.196 10.4673 117.163 10.626 117.126C10.794 117.098 10.92 117.042 11.004 116.958C11.088 116.874 11.144 116.753 11.172 116.594C11.2093 116.435 11.2467 116.216 11.284 115.936L11.368 114.886L12.32 115.208L12.18 116.384C12.124 116.748 12.0633 117.037 11.998 117.252C11.9327 117.467 11.83 117.635 11.69 117.756C11.5593 117.887 11.3773 117.98 11.144 118.036C10.9107 118.092 10.5933 118.139 10.192 118.176C9.98667 118.195 9.65067 118.204 9.184 118.204C8.71733 118.213 8.176 118.218 7.56 118.218C6.944 118.218 6.398 118.213 5.922 118.204C5.45533 118.204 5.124 118.195 4.928 118.176C4.536 118.139 4.21867 118.097 3.976 118.05C3.74267 118.013 3.56067 117.929 3.43 117.798C3.29933 117.677 3.21067 117.495 3.164 117.252C3.12667 117.019 3.108 116.692 3.108 116.272V110.322H10.43ZM0.476 110.714C1.78267 110.014 2.954 109.197 3.99 108.264C5.026 107.331 5.866 106.369 6.51 105.38H7.462C8.106 106.397 8.95533 107.354 10.01 108.25C11.0647 109.137 12.2593 109.916 13.594 110.588L13.02 111.498C12.3853 111.171 11.7787 110.817 11.2 110.434C10.6213 110.042 10.066 109.617 9.534 109.16C9.002 108.703 8.526 108.241 8.106 107.774C7.686 107.307 7.31733 106.831 7 106.346C6.272 107.363 5.418 108.311 4.438 109.188C3.458 110.065 2.352 110.854 1.12 111.554L0.476 110.714ZM23.66 105.408V107.13H25.41V107.9H23.66V109.832H24.374C25.1673 108.805 25.83 107.625 26.362 106.29L27.104 106.612C26.8333 107.247 26.558 107.825 26.278 108.348C25.998 108.871 25.6947 109.365 25.368 109.832H27.398V110.63H24.752L24.654 110.756C24.458 110.989 24.248 111.223 24.024 111.456C23.8 111.689 23.5573 111.923 23.296 112.156H26.334V117.994H21.812V113.388C21.6067 113.537 21.3967 113.687 21.182 113.836C20.9767 113.985 20.762 114.139 20.538 114.298L20.048 113.64C20.7667 113.164 21.434 112.674 22.05 112.17C22.666 111.657 23.212 111.143 23.688 110.63H20.482V109.832H22.876V107.9H21.056V107.13H22.876V105.408H23.66ZM14.378 112.212C14.6767 111.736 14.966 111.232 15.246 110.7C15.526 110.159 15.7873 109.58 16.03 108.964C16.5247 107.76 16.9213 106.589 17.22 105.45L18.144 105.646C17.9853 106.215 17.8127 106.766 17.626 107.298C17.4487 107.83 17.262 108.353 17.066 108.866V118.456H16.254V110.728C16.0767 111.083 15.8947 111.428 15.708 111.764C15.5307 112.091 15.3487 112.408 15.162 112.716L14.378 112.212ZM18.438 117.042C18.5873 116.939 18.6993 116.846 18.774 116.762C18.8487 116.669 18.886 116.547 18.886 116.398V110.686H17.584V109.79H19.712V116.132C19.9547 115.945 20.188 115.745 20.412 115.53C20.6453 115.306 20.8507 115.101 21.028 114.914L21.364 115.74C21.0467 116.067 20.6687 116.407 20.23 116.762C19.8007 117.117 19.3713 117.448 18.942 117.756L18.438 117.042ZM25.55 117.196V115.446H22.582V117.196H25.55ZM22.582 114.676H25.55V112.94H22.582V114.676ZM19.138 105.772C19.2407 105.921 19.3573 106.099 19.488 106.304C19.6187 106.5 19.7633 106.729 19.922 106.99C20.2207 107.494 20.4447 107.923 20.594 108.278L19.88 108.712C19.7307 108.367 19.5067 107.937 19.208 107.424C18.9 106.873 18.648 106.458 18.452 106.178L19.138 105.772Z" fill="black" fill-opacity="0.8"/>
<path d="M2.59 196.124V193.366H3.416V196.124H5.166V196.992H3.416V198.098C3.59333 198.285 3.766 198.476 3.934 198.672C4.11133 198.859 4.28867 199.05 4.466 199.246C4.64333 199.451 4.79267 199.633 4.914 199.792C5.04467 199.951 5.152 200.091 5.236 200.212L4.55 200.814C4.47533 200.693 4.37733 200.557 4.256 200.408C4.144 200.249 4.01333 200.077 3.864 199.89L3.416 199.33V206.526H2.59V199.232L2.408 199.75C2.22133 200.291 2.02533 200.795 1.82 201.262C1.61467 201.719 1.39067 202.177 1.148 202.634L0.406 202.186C0.667333 201.738 0.914667 201.262 1.148 200.758C1.39067 200.254 1.624 199.708 1.848 199.12C1.99733 198.728 2.128 198.359 2.24 198.014C2.36133 197.659 2.464 197.319 2.548 196.992H0.812V196.124H2.59ZM9.576 204.902C9.716 204.603 9.86067 204.249 10.01 203.838C10.1687 203.427 10.3367 202.965 10.514 202.452C10.7193 201.855 10.892 201.318 11.032 200.842C11.1813 200.366 11.298 199.946 11.382 199.582L12.278 199.764C12.11 200.529 11.816 201.505 11.396 202.69C11.2373 203.138 11.0833 203.544 10.934 203.908C10.794 204.272 10.6587 204.603 10.528 204.902H13.118V205.798H4.452V204.902H9.576ZM4.368 198.028C5.30133 197.356 6.09467 196.647 6.748 195.9C7.41067 195.144 7.95667 194.327 8.386 193.45H9.24C9.69733 194.402 10.2807 195.275 10.99 196.068C11.7087 196.861 12.5627 197.608 13.552 198.308L13.006 199.022C12.0447 198.341 11.228 197.627 10.556 196.88C9.884 196.133 9.31 195.321 8.834 194.444C8.386 195.284 7.84 196.054 7.196 196.754C6.56133 197.445 5.81 198.112 4.942 198.756L4.368 198.028ZM11.662 198.028V198.924H5.936V198.028H11.662ZM6.076 199.61C6.17867 199.862 6.286 200.161 6.398 200.506C6.51 200.842 6.63133 201.234 6.762 201.682C7.014 202.569 7.182 203.269 7.266 203.782L6.468 204.076C6.384 203.553 6.216 202.849 5.964 201.962C5.84267 201.514 5.726 201.117 5.614 200.772C5.51133 200.427 5.40867 200.128 5.306 199.876L6.076 199.61ZM8.554 199.456C8.64733 199.689 8.74533 199.965 8.848 200.282C8.95067 200.59 9.058 200.954 9.17 201.374C9.282 201.785 9.37533 202.153 9.45 202.48C9.52467 202.807 9.58067 203.091 9.618 203.334L8.806 203.572C8.76867 203.329 8.71267 203.049 8.638 202.732C8.57267 202.405 8.47933 202.037 8.358 201.626C8.246 201.206 8.13867 200.837 8.036 200.52C7.94267 200.203 7.84933 199.923 7.756 199.68L8.554 199.456ZM18.774 194.178L18.424 199.582H19.068C19.0587 200.357 19.0493 201.024 19.04 201.584C19.0307 202.135 19.0167 202.583 18.998 202.928L18.9 204.734C18.8813 204.967 18.844 205.163 18.788 205.322C18.7413 205.481 18.662 205.611 18.55 205.714C18.438 205.817 18.2887 205.896 18.102 205.952C17.9247 206.008 17.6913 206.05 17.402 206.078C17.3273 206.087 17.2247 206.092 17.094 206.092C16.9727 206.101 16.842 206.106 16.702 206.106C16.562 206.115 16.4267 206.12 16.296 206.12C16.1653 206.129 16.058 206.134 15.974 206.134L15.792 205.21C15.8853 205.219 15.9927 205.229 16.114 205.238C16.2447 205.247 16.3753 205.252 16.506 205.252C16.646 205.252 16.7767 205.252 16.898 205.252C17.0193 205.252 17.122 205.252 17.206 205.252C17.402 205.252 17.556 205.238 17.668 205.21C17.7893 205.191 17.878 205.145 17.934 205.07C17.9993 205.005 18.0413 204.911 18.06 204.79C18.088 204.669 18.1113 204.505 18.13 204.3C18.1487 204.104 18.1627 203.894 18.172 203.67C18.1813 203.446 18.1907 203.203 18.2 202.942C18.2187 202.681 18.228 202.34 18.228 201.92C18.2373 201.491 18.2467 200.982 18.256 200.394H15.274L15.61 195.62H16.394L16.1 199.582H17.626L17.934 194.99H14.812V194.178H18.774ZM23.87 204.902C24.0007 204.603 24.136 204.249 24.276 203.838C24.4253 203.427 24.5793 202.965 24.738 202.452C24.9247 201.864 25.0787 201.332 25.2 200.856C25.3307 200.38 25.4333 199.96 25.508 199.596L26.334 199.778C26.1753 200.525 25.9093 201.491 25.536 202.676C25.3867 203.124 25.2467 203.535 25.116 203.908C24.9853 204.272 24.8547 204.603 24.724 204.902H27.09V205.784H19.166V204.902H23.87ZM18.69 198.308C19.614 197.608 20.4073 196.857 21.07 196.054C21.7327 195.251 22.288 194.383 22.736 193.45H23.562C24.01 194.411 24.5653 195.293 25.228 196.096C25.8907 196.889 26.6747 197.627 27.58 198.308L27.062 199.008C26.1847 198.336 25.4193 197.636 24.766 196.908C24.122 196.171 23.5853 195.363 23.156 194.486C22.708 195.363 22.1573 196.166 21.504 196.894C20.86 197.622 20.0993 198.327 19.222 199.008L18.69 198.308ZM25.774 198.028V198.896H20.51V198.028H25.774ZM20.608 199.61C20.7107 199.862 20.8133 200.161 20.916 200.506C21.0187 200.851 21.1307 201.248 21.252 201.696C21.4853 202.583 21.6393 203.283 21.714 203.796L20.972 204.062C20.9347 203.791 20.8787 203.483 20.804 203.138C20.7293 202.783 20.636 202.382 20.524 201.934C20.3 201.038 20.09 200.343 19.894 199.848L20.608 199.61ZM22.904 199.456C23.0627 199.895 23.2493 200.534 23.464 201.374C23.6693 202.177 23.8093 202.83 23.884 203.334L23.128 203.558C23.0907 203.315 23.0393 203.031 22.974 202.704C22.9087 202.377 22.8247 202.009 22.722 201.598C22.6193 201.187 22.5213 200.823 22.428 200.506C22.3347 200.189 22.246 199.909 22.162 199.666L22.904 199.456ZM14.434 202.55C14.6487 202.531 14.8913 202.508 15.162 202.48C15.442 202.443 15.7593 202.391 16.114 202.326C16.4687 202.261 16.7813 202.2 17.052 202.144C17.332 202.079 17.5793 202.018 17.794 201.962L17.892 202.802C17.6773 202.858 17.4347 202.919 17.164 202.984C16.8933 203.04 16.5807 203.101 16.226 203.166C15.8807 203.222 15.5727 203.269 15.302 203.306C15.0313 203.343 14.7887 203.371 14.574 203.39L14.434 202.55Z" fill="black" fill-opacity="0.8"/>
<path d="M38 24H115" stroke="black" stroke-linecap="round" stroke-dasharray="2 2"/>
<path d="M38 112H115" stroke="black" stroke-linecap="round" stroke-dasharray="2 2"/>
<path d="M38 200H115" stroke="black" stroke-linecap="round" stroke-dasharray="2 2"/>
<path d="M164 48V88" stroke="black" stroke-opacity="0.5"/>
<path d="M164 136V176" stroke="black" stroke-opacity="0.5"/>
</svg>
